<mxfile host="app.diagrams.net" modified="2021-01-11T02:17:08.716Z" agent="5.0 (Windows NT 10.0; Win64; x64) AppleWebKit/537.36 (KHTML, like Gecko) Chrome/87.0.4280.88 Safari/537.36" etag="-SkondPPcn0Ve3opYyCz" version="14.1.8" type="github">
  <diagram id="0eA8aw2C4x_AHw5Ap8uo" name="Page-1">
    <mxGraphModel dx="782" dy="437" grid="1" gridSize="10" guides="1" tooltips="1" connect="1" arrows="1" fold="1" page="1" pageScale="1" pageWidth="850" pageHeight="1100" math="0" shadow="0">
      <root>
        <mxCell id="0" />
        <mxCell id="1" parent="0" />
        <mxCell id="RCCy9ar9vTBcTcrXnlN3-1" value="map" style="rounded=1;whiteSpace=wrap;html=1;" vertex="1" parent="1">
          <mxGeometry x="310" y="220" width="120" height="60" as="geometry" />
        </mxCell>
        <mxCell id="RCCy9ar9vTBcTcrXnlN3-7" style="edgeStyle=orthogonalEdgeStyle;rounded=0;orthogonalLoop=1;jettySize=auto;html=1;exitX=0.5;exitY=1;exitDx=0;exitDy=0;entryX=0;entryY=0.5;entryDx=0;entryDy=0;" edge="1" parent="1" source="RCCy9ar9vTBcTcrXnlN3-2" target="RCCy9ar9vTBcTcrXnlN3-1">
          <mxGeometry relative="1" as="geometry" />
        </mxCell>
        <mxCell id="RCCy9ar9vTBcTcrXnlN3-2" value="sock_ops" style="rhombus;whiteSpace=wrap;html=1;" vertex="1" parent="1">
          <mxGeometry x="180" y="120" width="100" height="90" as="geometry" />
        </mxCell>
        <mxCell id="RCCy9ar9vTBcTcrXnlN3-3" value="sk_msg_md&lt;br&gt;(redirect)" style="rhombus;whiteSpace=wrap;html=1;" vertex="1" parent="1">
          <mxGeometry x="325" y="280" width="90" height="90" as="geometry" />
        </mxCell>
        <mxCell id="RCCy9ar9vTBcTcrXnlN3-6" style="edgeStyle=orthogonalEdgeStyle;rounded=0;orthogonalLoop=1;jettySize=auto;html=1;entryX=0.5;entryY=0;entryDx=0;entryDy=0;" edge="1" parent="1" source="RCCy9ar9vTBcTcrXnlN3-5" target="RCCy9ar9vTBcTcrXnlN3-2">
          <mxGeometry relative="1" as="geometry" />
        </mxCell>
        <mxCell id="RCCy9ar9vTBcTcrXnlN3-5" value="socket" style="text;html=1;strokeColor=none;fillColor=none;align=center;verticalAlign=middle;whiteSpace=wrap;rounded=0;" vertex="1" parent="1">
          <mxGeometry x="120" y="60" width="40" height="20" as="geometry" />
        </mxCell>
      </root>
    </mxGraphModel>
  </diagram>
</mxfile>
